name Walk3.mot
datacolumns 19
datarows 17
range 1.55500000 1.63500000
endheader

                time	   L_ground_force_vx	   L_ground_force_vy	   L_ground_force_vz	   L_ground_force_px	   L_ground_force_py	   L_ground_force_pz	   R_ground_force_vx	   R_ground_force_vy	   R_ground_force_vz	   R_ground_force_px	   R_ground_force_py	   R_ground_force_pz	   L_ground_torque_x	   L_ground_torque_y	   L_ground_torque_z	   R_ground_torque_x	   R_ground_torque_y	   R_ground_torque_z	
          1.55500000	          0.00000001	         -0.00000008	          0.00000001	         -0.00000000	          0.00000000	         -0.00000000	         -0.12703301	         91.10041884	         12.31878964	          0.00059656	          0.00000000	         -0.00114210	          0.00000000	          0.00000000	          0.00000000	          0.00000000	         -0.15990266	          0.00000000	
          1.56000000	          0.00000001	         -0.00000009	          0.00000001	         -0.00000000	          0.00000000	         -0.00000000	         -7.30978666	        153.48472086	         15.84311535	         -0.06213090	          0.00000000	          0.07609453	          0.00000000	          0.00000000	          0.00000000	          0.00000000	         -0.18481134	          0.00000000	
          1.56500000	          0.00000001	         -0.00000009	          0.00000001	         -0.00000000	          0.00000000	         -0.00000000	        -15.58110548	        217.52128662	         19.11964717	         -0.11957133	          0.00000000	          0.14744270	          0.00000000	          0.00000000	          0.00000000	          0.00000000	         -0.20464952	          0.00000000	
          1.57000000	          0.00000001	         -0.00000008	          0.00000000	         -0.00000000	          0.00000000	         -0.00000000	        -24.96128670	        279.61341280	         21.67905461	         -0.16876599	          0.00000000	          0.20940794	          0.00000000	          0.00000000	          0.00000000	          0.00000000	         -0.21333598	          0.00000000	
          1.57500000	          0.00000002	         -0.00000005	         -0.00000000	          0.00000000	          0.00000000	          0.00000000	        -35.47508094	        337.24494189	         23.01817013	         -0.20844023	          0.00000000	          0.26051172	          0.00000000	          0.00000000	          0.00000000	          0.00000000	         -0.20272213	          0.00000000	
          1.58000000	          0.00000002	         -0.00000000	         -0.00000001	          0.00000000	          0.00000000	          0.00000000	        -47.01675165	        389.40558316	         22.75146849	         -0.23850855	          0.00000000	          0.30067296	          0.00000000	          0.00000000	          0.00000000	          0.00000000	         -0.16375501	          0.00000000	
          1.58500000	          0.00000002	          0.00000007	         -0.00000002	          0.00000000	          0.00000000	          0.00000000	        -59.30046062	        435.96192056	         20.70141792	         -0.25966081	          0.00000000	          0.33070663	          0.00000000	          0.00000000	          0.00000000	          0.00000000	         -0.08785017	          0.00000000	
          1.59000000	          0.00000001	          0.00000019	         -0.00000003	          0.00000000	          0.00000000	          0.00000000	        -71.88513994	        477.29653784	         16.90749026	         -0.27304173	          0.00000000	          0.35193351	          0.00000000	          0.00000000	          0.00000000	          0.00000000	          0.03013008	          0.00000000	
          1.59500000	          0.00000001	          0.00000034	         -0.00000004	          0.00000000	          0.00000000	          0.00000000	        -84.27415585	        514.24007890	         11.59556752	         -0.28001496	          0.00000000	          0.36588668	          0.00000000	         -0.00000000	          0.00000000	          0.00000000	          0.18859602	          0.00000000	
          1.60000000	         -0.00000000	          0.00000053	         -0.00000006	          0.00000000	          0.00000000	          0.00000000	        -96.06574944	        547.83728087	          5.14890313	         -0.28199496	          0.00000000	          0.37410610	          0.00000000	         -0.00000000	          0.00000000	          0.00000000	          0.37710383	          0.00000000	
          1.60500000	         -0.00000002	          0.00000077	         -0.00000008	          0.00000000	          0.00000000	          0.00000000	       -107.03995785	        578.97666172	         -1.92251391	         -0.28033278	          0.00000000	          0.37801157	          0.00000000	         -0.00000000	          0.00000000	          0.00000000	          0.57576135	          0.00000000	
          1.61000000	         -0.00000004	          0.00000105	         -0.00000011	          0.00000000	          0.00000000	          0.00000000	       -117.09397424	        608.23011539	         -9.04125590	         -0.27623248	          0.00000000	          0.37883443	          0.00000000	         -0.00000000	          0.00000000	          0.00000000	          0.75977351	          0.00000000	
          1.61500000	         -0.00000007	          0.00000135	         -0.00000013	          0.00000000	          0.00000000	          0.00000000	       -126.10182756	        636.01611090	        -15.67017727	         -0.27069915	          0.00000000	          0.37759263	          0.00000000	         -0.00000000	          0.00000000	          0.00000000	          0.90782892	          0.00000000	
          1.62000000	         -0.00000011	          0.00000166	         -0.00000015	          0.00000000	          0.00000000	          0.00000000	       -133.85398914	        662.79866184	        -21.40745839	         -0.26452975	          0.00000000	          0.37509295	          0.00000000	         -0.00000000	          0.00000000	          0.00000000	          1.00876358	          0.00000000	
          1.62500000	         -0.00000015	          0.00000193	         -0.00000017	          0.00000000	          0.00000000	          0.00000000	       -140.12038198	        689.03873476	        -25.99497247	         -0.25832841	          0.00000000	          0.37194604	          0.00000000	         -0.00000000	          0.00000000	          0.00000000	          1.06189142	          0.00000000	
          1.63000000	         -0.00000020	          0.00000212	         -0.00000017	          0.00000000	          0.00000000	          0.00000000	       -144.73516090	        714.99432791	        -29.29350318	         -0.25252157	          0.00000000	          0.36859098	          0.00000000	         -0.00000000	          0.00000000	          0.00000000	          1.07313740	          0.00000000	
          1.63500000	         -0.00000026	          0.00000215	         -0.00000015	          0.00000000	          0.00000000	          0.00000000	       -147.62960251	        740.63005132	        -31.27060280	         -0.24737237	          0.00000000	          0.36532270	          0.00000000	         -0.00000000	          0.00000000	          0.00000000	          1.04968872	          0.00000000	
